<svg xmlns="http://www.w3.org/2000/svg" width="424.099" height="379.748" viewBox="0 0 424.099 379.748">
  <g id="white-home" transform="translate(0.001 -22.175)">
    <g id="Group_1" data-name="Group 1">
      <path id="Path_1" data-name="Path 1" d="M351.191,401.923H72.9a8.126,8.126,0,0,1-8.129-8.129V242.262l-56.664-.114a8.128,8.128,0,0,1-5.731-13.875L206.1,24.546a8.253,8.253,0,0,1,7.047-2.276,8.133,8.133,0,0,1,5.731,3.942l47.43,47.43V58.5a8.126,8.126,0,0,1,8.129-8.129H322.2a8.127,8.127,0,0,1,8.129,8.129v79.156l91.39,91.4a8.124,8.124,0,0,1-5.747,13.875h-.016l-56.64-.114v150.98A8.11,8.11,0,0,1,351.191,401.923ZM81.03,385.666H343.063v-151a8.133,8.133,0,0,1,8.129-8.129h.016l45.105.089-79.855-79.863a8.122,8.122,0,0,1-2.382-5.747V66.628h-31.5V93.273A8.126,8.126,0,0,1,268.7,99.02L211.665,41.982,27.715,225.932l45.2.089a8.123,8.123,0,0,1,8.112,8.129S81.03,385.666,81.03,385.666Z" fill="#fff"/>
    </g>
  </g>
</svg>
